<?xml version="1.0" encoding="utf-8"?>
<Project name="Mi pelÃ­cula" themeId="1" version="65538" templateID="SimpleProjectTemplate">
  <MediaItems>
    <MediaItem id="1" filePath="C:\Video\Bien.avi" arWidth="800" arHeight="600" duration="27.300000399999998" songTitle="" songArtist="" songAlbum="" />
    <MediaItem id="2" filePath="C:\Video\Video0019.avi" arWidth="800" arHeight="600" duration="9.2000001000000005" songTitle="" songArtist="" songAlbum="" />
    <MediaItem id="3" filePath="C:\Users\Alejandro\Desktop\13 Derezzed.m4a" arWidth="0" arHeight="0" duration="104.18793650000001" songTitle="Derezzed" songArtist="Daft Punk" songAlbum="TRON: Legacy" />
    <MediaItem id="4" filePath="C:\Video\Camino estrecho, campo complejo.avi" arWidth="800" arHeight="600" duration="21.700000299999999" songTitle="" songArtist="" songAlbum="" />
    <MediaItem id="5" filePath="C:\Video\Misma camara, no enemigos, Perdio.avi" arWidth="800" arHeight="600" duration="27.300000399999998" songTitle="" songArtist="" songAlbum="" />
    <MediaItem id="6" filePath="C:\Video\Sigue enemigo, meure campo full.avi" arWidth="800" arHeight="600" duration="18.600000300000001" songTitle="" songArtist="" songAlbum="" />
    <MediaItem id="7" filePath="C:\Video\Rodea enemigo.avi" arWidth="800" arHeight="600" duration="19.100000300000001" songTitle="" songArtist="" songAlbum="" />
    <MediaItem id="8" filePath="C:\Video\Salvada.avi" arWidth="800" arHeight="600" duration="11.6000002" songTitle="" songArtist="" songAlbum="" />
    <MediaItem id="9" filePath="C:\Video\Video0020.avi" arWidth="800" arHeight="600" duration="25.7000004" songTitle="" songArtist="" songAlbum="" />
    <MediaItem id="10" filePath="C:\Video\Sigue enemigos.avi" arWidth="800" arHeight="600" duration="32.000000499999999" songTitle="" songArtist="" songAlbum="" />
    <MediaItem id="12" filePath="C:\Users\Alejandro\Desktop\Semestre Actual\Grafica\Proyecto\Proyecto\files\Texturas\Menu2.jpg" arWidth="800" arHeight="600" duration="0" songTitle="" songArtist="" songAlbum="" />
  </MediaItems>
  <Extents>
    <VideoClip extentID="34" gapBefore="0" mediaItemID="7" inTime="7.1605228000000807" outTime="8.34039880000023" speed="1">
      <Effects />
      <Transitions />
      <BoundProperties>
        <BoundPropertyBool Name="Mute" Value="false" />
        <BoundPropertyInt Name="rotateStepNinety" Value="0" />
        <BoundPropertyFloat Name="Volume" Value="1" />
      </BoundProperties>
    </VideoClip>
    <VideoClip extentID="51" gapBefore="0" mediaItemID="9" inTime="9.2706279000003633" outTime="11.1709206000005" speed="1">
      <Effects />
      <Transitions />
      <BoundProperties>
        <BoundPropertyBool Name="Mute" Value="false" />
        <BoundPropertyInt Name="rotateStepNinety" Value="0" />
        <BoundPropertyFloat Name="Volume" Value="1" />
      </BoundProperties>
    </VideoClip>
    <VideoClip extentID="18" gapBefore="0" mediaItemID="1" inTime="1.4133961999999762" outTime="6.5033346999999555" speed="1">
      <Effects />
      <Transitions>
        <ShapeEffect effectTemplateID="BlurThroughBlackTransitionTemplate" duration="1.5">
          <BoundProperties />
        </ShapeEffect>
      </Transitions>
      <BoundProperties>
        <BoundPropertyBool Name="Mute" Value="false" />
        <BoundPropertyInt Name="rotateStepNinety" Value="0" />
        <BoundPropertyFloat Name="Volume" Value="1" />
      </BoundProperties>
    </VideoClip>
    <ImageClip extentID="69" gapBefore="0" mediaItemID="12" duration="3">
      <Effects />
      <Transitions />
      <BoundProperties>
        <BoundPropertyInt Name="rotateStepNinety" Value="0" />
      </BoundProperties>
    </ImageClip>
    <VideoClip extentID="19" gapBefore="0" mediaItemID="1" inTime="9.2234180000000112" outTime="27.300000399999998" speed="0.95999999999999996">
      <Effects />
      <Transitions>
        <ShaderEffect effectTemplateID="DissolveRoughTransitionTemplate" duration="1.5">
          <BoundProperties />
        </ShaderEffect>
      </Transitions>
      <BoundProperties>
        <BoundPropertyBool Name="Mute" Value="false" />
        <BoundPropertyInt Name="rotateStepNinety" Value="0" />
        <BoundPropertyFloat Name="Volume" Value="1" />
      </BoundProperties>
    </VideoClip>
    <VideoClip extentID="53" gapBefore="0" mediaItemID="8" inTime="2.0696259000000481" outTime="11.6000002" speed="1">
      <Effects />
      <Transitions>
        <ShapeEffect effectTemplateID="PixelateTransitionTemplate" duration="1.5">
          <BoundProperties />
        </ShapeEffect>
      </Transitions>
      <BoundProperties>
        <BoundPropertyBool Name="Mute" Value="false" />
        <BoundPropertyInt Name="rotateStepNinety" Value="0" />
        <BoundPropertyFloat Name="Volume" Value="1" />
      </BoundProperties>
    </VideoClip>
    <VideoClip extentID="20" gapBefore="0" mediaItemID="4" inTime="0" outTime="18.430020800000079" speed="0.90000000000000002">
      <Effects />
      <Transitions>
        <ShapeEffect effectTemplateID="BlurTransitionTemplate" duration="1.5">
          <BoundProperties />
        </ShapeEffect>
      </Transitions>
      <BoundProperties>
        <BoundPropertyBool Name="Mute" Value="false" />
        <BoundPropertyInt Name="rotateStepNinety" Value="0" />
        <BoundPropertyFloat Name="Volume" Value="1" />
      </BoundProperties>
    </VideoClip>
    <VideoClip extentID="55" gapBefore="0" mediaItemID="10" inTime="4.870375899999928" outTime="17.43054349999997" speed="1">
      <Effects />
      <Transitions>
        <ShapeEffect effectTemplateID="BlurThroughBlackTransitionTemplate" duration="1.5">
          <BoundProperties />
        </ShapeEffect>
      </Transitions>
      <BoundProperties>
        <BoundPropertyBool Name="Mute" Value="false" />
        <BoundPropertyInt Name="rotateStepNinety" Value="0" />
        <BoundPropertyFloat Name="Volume" Value="1" />
      </BoundProperties>
    </VideoClip>
    <VideoClip extentID="6" gapBefore="0" mediaItemID="2" inTime="0" outTime="4.0598760000000027" speed="1">
      <Effects />
      <Transitions>
        <ShapeEffect effectTemplateID="CrossfadeTransitionTemplate" duration="1.5">
          <BoundProperties />
        </ShapeEffect>
      </Transitions>
      <BoundProperties>
        <BoundPropertyBool Name="Mute" Value="false" />
        <BoundPropertyInt Name="rotateStepNinety" Value="0" />
        <BoundPropertyFloat Name="Volume" Value="1" />
      </BoundProperties>
    </VideoClip>
    <TitleClip extentID="7" gapBefore="0" duration="7">
      <Effects />
      <Transitions />
      <BoundProperties>
        <BoundPropertyFloatSet Name="diffuseColor">
          <BoundPropertyFloatElement Value="0" />
          <BoundPropertyFloatElement Value="0" />
          <BoundPropertyFloatElement Value="0" />
        </BoundPropertyFloatSet>
        <BoundPropertyFloat Name="transparency" Value="0" />
      </BoundProperties>
    </TitleClip>
    <VideoClip extentID="24" gapBefore="0" mediaItemID="5" inTime="0" outTime="9.1301884999999956" speed="1">
      <Effects />
      <Transitions>
        <ShapeEffect effectTemplateID="SlideDownTogetherTransitionTemplate" duration="1.5">
          <BoundProperties />
        </ShapeEffect>
      </Transitions>
      <BoundProperties>
        <BoundPropertyBool Name="Mute" Value="false" />
        <BoundPropertyInt Name="rotateStepNinety" Value="0" />
        <BoundPropertyFloat Name="Volume" Value="1" />
      </BoundProperties>
    </VideoClip>
    <VideoClip extentID="41" gapBefore="0" mediaItemID="7" inTime="8.34039880000023" outTime="19.100000300000001" speed="1">
      <Effects />
      <Transitions />
      <BoundProperties>
        <BoundPropertyBool Name="Mute" Value="false" />
        <BoundPropertyInt Name="rotateStepNinety" Value="0" />
        <BoundPropertyFloat Name="Volume" Value="1" />
      </BoundProperties>
    </VideoClip>
    <TitleClip extentID="8" gapBefore="0" duration="7">
      <Effects />
      <Transitions>
        <ShapeEffect effectTemplateID="CrossfadeTransitionTemplate" duration="1.5">
          <BoundProperties />
        </ShapeEffect>
      </Transitions>
      <BoundProperties>
        <BoundPropertyFloatSet Name="diffuseColor">
          <BoundPropertyFloatElement Value="0" />
          <BoundPropertyFloatElement Value="0" />
          <BoundPropertyFloatElement Value="0" />
        </BoundPropertyFloatSet>
        <BoundPropertyFloat Name="transparency" Value="0" />
      </BoundProperties>
    </TitleClip>
    <VideoClip extentID="43" gapBefore="0" mediaItemID="7" inTime="10.160628900000347" outTime="11.071024800000259" speed="1">
      <Effects />
      <Transitions />
      <BoundProperties>
        <BoundPropertyBool Name="Mute" Value="false" />
        <BoundPropertyInt Name="rotateStepNinety" Value="0" />
        <BoundPropertyFloat Name="Volume" Value="1" />
      </BoundProperties>
    </VideoClip>
    <VideoClip extentID="60" gapBefore="0" mediaItemID="6" inTime="17.042584006937801" outTime="18.600000300000001" speed="1.5">
      <Effects />
      <Transitions />
      <BoundProperties>
        <BoundPropertyBool Name="Mute" Value="false" />
        <BoundPropertyInt Name="rotateStepNinety" Value="0" />
        <BoundPropertyFloat Name="Volume" Value="1" />
      </BoundProperties>
    </VideoClip>
    <VideoClip extentID="27" gapBefore="0" mediaItemID="6" inTime="5.8897926999999299" outTime="17.562552499999946" speed="1">
      <Effects />
      <Transitions>
        <ShaderEffect effectTemplateID="DiagonalBoxOutTransitionTemplate" duration="1.5">
          <BoundProperties />
        </ShaderEffect>
      </Transitions>
      <BoundProperties>
        <BoundPropertyBool Name="Mute" Value="false" />
        <BoundPropertyInt Name="rotateStepNinety" Value="0" />
        <BoundPropertyFloat Name="Volume" Value="1" />
      </BoundProperties>
    </VideoClip>
    <TitleClip extentID="11" gapBefore="0" duration="7">
      <Effects>
        <TextEffect effectTemplateID="TextEffectContemporaryFade1Template" TextScriptId="19">
          <BoundProperties>
            <BoundPropertyBool Name="automatic" Value="false" />
            <BoundPropertyFloatSet Name="color">
              <BoundPropertyFloatElement Value="1" />
              <BoundPropertyFloatElement Value="1" />
              <BoundPropertyFloatElement Value="1" />
            </BoundPropertyFloatSet>
            <BoundPropertyStringSet Name="family">
              <BoundPropertyStringElement Value="Segoe UI" />
            </BoundPropertyStringSet>
            <BoundPropertyBool Name="horizontal" Value="true" />
            <BoundPropertyStringSet Name="justify">
              <BoundPropertyStringElement Value="MIDDLE" />
            </BoundPropertyStringSet>
            <BoundPropertyFloatSet Name="length" />
            <BoundPropertyFloat Name="maxExtent" Value="0" />
            <BoundPropertyFloatSet Name="position">
              <BoundPropertyFloatElement Value="0" />
              <BoundPropertyFloatElement Value="-1.1860466003417969" />
              <BoundPropertyFloatElement Value="0.02500000037252903" />
            </BoundPropertyFloatSet>
            <BoundPropertyFloat Name="size" Value="0.43333333730697632" />
            <BoundPropertyStringSet Name="string">
              <BoundPropertyStringElement Value="Crazy Jeep" />
            </BoundPropertyStringSet>
            <BoundPropertyString Name="style" Value="Plain" />
            <BoundPropertyFloat Name="transparency" Value="0" />
          </BoundProperties>
        </TextEffect>
      </Effects>
      <Transitions />
      <BoundProperties>
        <BoundPropertyFloatSet Name="diffuseColor">
          <BoundPropertyFloatElement Value="0.75" />
          <BoundPropertyFloatElement Value="1" />
          <BoundPropertyFloatElement Value="0" />
        </BoundPropertyFloatSet>
        <BoundPropertyFloat Name="transparency" Value="1" />
      </BoundProperties>
    </TitleClip>
    <TitleClip extentID="12" gapBefore="-1.5" duration="7">
      <Effects>
        <TextEffect effectTemplateID="TextEffectContemporaryFlyInLeft1Template" TextScriptId="22">
          <BoundProperties>
            <BoundPropertyBool Name="automatic" Value="false" />
            <BoundPropertyFloatSet Name="color">
              <BoundPropertyFloatElement Value="0.29803922772407532" />
              <BoundPropertyFloatElement Value="0.29803922772407532" />
              <BoundPropertyFloatElement Value="0.29803922772407532" />
            </BoundPropertyFloatSet>
            <BoundPropertyStringSet Name="family">
              <BoundPropertyStringElement Value="Segoe UI" />
            </BoundPropertyStringSet>
            <BoundPropertyBool Name="horizontal" Value="true" />
            <BoundPropertyStringSet Name="justify">
              <BoundPropertyStringElement Value="BEGIN" />
            </BoundPropertyStringSet>
            <BoundPropertyFloatSet Name="length" />
            <BoundPropertyFloat Name="maxExtent" Value="0" />
            <BoundPropertyFloatSet Name="position">
              <BoundPropertyFloatElement Value="-2.2532751560211182" />
              <BoundPropertyFloatElement Value="1.0639535188674927" />
              <BoundPropertyFloatElement Value="0.02500000037252903" />
            </BoundPropertyFloatSet>
            <BoundPropertyFloat Name="size" Value="0.3333333432674408" />
            <BoundPropertyStringSet Name="string">
              <BoundPropertyStringElement Value="CREADORES" />
              <BoundPropertyStringElement Value="" />
              <BoundPropertyStringElement Value="Alejandro Sans" />
              <BoundPropertyStringElement Value="VÃ­ctor Felipe" />
            </BoundPropertyStringSet>
            <BoundPropertyString Name="style" Value="Plain" />
            <BoundPropertyFloat Name="transparency" Value="0" />
          </BoundProperties>
        </TextEffect>
      </Effects>
      <Transitions />
      <BoundProperties>
        <BoundPropertyFloatSet Name="diffuseColor">
          <BoundPropertyFloatElement Value="0.75" />
          <BoundPropertyFloatElement Value="1" />
          <BoundPropertyFloatElement Value="0" />
        </BoundPropertyFloatSet>
        <BoundPropertyFloat Name="transparency" Value="1" />
      </BoundProperties>
    </TitleClip>
    <VideoClip extentID="30" gapBefore="0" mediaItemID="5" inTime="12.26031549999967" outTime="21.866356159999633" speed="1">
      <Effects />
      <Transitions>
        <ShaderEffect effectTemplateID="ShatterUpLeftTransitionTemplate" duration="1.5">
          <BoundProperties />
        </ShaderEffect>
      </Transitions>
      <BoundProperties>
        <BoundPropertyBool Name="Mute" Value="false" />
        <BoundPropertyInt Name="rotateStepNinety" Value="0" />
        <BoundPropertyFloat Name="Volume" Value="1" />
      </BoundProperties>
    </VideoClip>
    <AudioClip extentID="15" gapBefore="4.46875" mediaItemID="3" inTime="0" outTime="0" speed="1">
      <Effects />
      <Transitions />
      <BoundProperties>
        <BoundPropertyBool Name="Mute" Value="false" />
        <BoundPropertyFloat Name="Volume" Value="1" />
      </BoundProperties>
    </AudioClip>
    <ExtentSelector extentID="1" gapBefore="0" primaryTrack="true">
      <Effects />
      <Transitions />
      <BoundProperties />
      <ExtentRefs>
        <ExtentRef id="7" />
        <ExtentRef id="8" />
        <ExtentRef id="6" />
        <ExtentRef id="18" />
        <ExtentRef id="20" />
        <ExtentRef id="19" />
        <ExtentRef id="24" />
        <ExtentRef id="27" />
        <ExtentRef id="30" />
        <ExtentRef id="34" />
        <ExtentRef id="43" />
        <ExtentRef id="51" />
        <ExtentRef id="55" />
        <ExtentRef id="53" />
        <ExtentRef id="60" />
        <ExtentRef id="69" />
      </ExtentRefs>
    </ExtentSelector>
    <ExtentSelector extentID="2" gapBefore="0" primaryTrack="false">
      <Effects />
      <Transitions />
      <BoundProperties />
      <ExtentRefs>
        <ExtentRef id="15" />
      </ExtentRefs>
    </ExtentSelector>
    <ExtentSelector extentID="3" gapBefore="0" primaryTrack="false">
      <Effects />
      <Transitions />
      <BoundProperties />
      <ExtentRefs />
    </ExtentSelector>
    <ExtentSelector extentID="4" gapBefore="0" primaryTrack="false">
      <Effects />
      <Transitions />
      <BoundProperties />
      <ExtentRefs>
        <ExtentRef id="11" />
        <ExtentRef id="12" />
      </ExtentRefs>
    </ExtentSelector>
  </Extents>
  <BoundPlaceholders>
    <BoundPlaceholder placeholderID="SingleExtentView" extentID="0" />
    <BoundPlaceholder placeholderID="Main" extentID="1" />
    <BoundPlaceholder placeholderID="SoundTrack" extentID="2" />
    <BoundPlaceholder placeholderID="Text" extentID="4" />
    <BoundPlaceholder placeholderID="Narration" extentID="3" />
  </BoundPlaceholders>
  <BoundProperties>
    <BoundPropertyFloatSet Name="AspectRatio">
      <BoundPropertyFloatElement Value="1.3333332538604736" />
    </BoundPropertyFloatSet>
    <BoundPropertyFloat Name="SoundTrackMix" Value="0.5" />
  </BoundProperties>
  <ThemeOperationLog themeID="1">
    <MonolithicThemeOperations />
  </ThemeOperationLog>
</Project>